<?xml version="1.0" encoding="UTF-8"?>
<svg id="Layer_1" xmlns="http://www.w3.org/2000/svg" version="1.1" viewBox="0 0 612 792">
  <!-- Generator: Adobe Illustrator 30.1.0, SVG Export Plug-In . SVG Version: 2.1.1 Build 136)  -->
  <defs>
    <style>
      .st0 {
        stroke-dasharray: 12;
      }

      .st0, .st1, .st2, .st3, .st4 {
        fill: none;
        stroke: #000;
        stroke-miterlimit: 10;
      }

      .st5 {
        fill: #fff;
      }

      .st2, .st4 {
        stroke-width: 2px;
      }

      .st3, .st4 {
        stroke-dasharray: 12 12;
      }
    </style>
  </defs>
  <g>
    <rect class="st5" x="18.5" y="36.5" width="575" height="683"/>
    <path d="M593,37v682H19V37h574M594,36H18v684h576V36h0Z"/>
  </g>
  <g>
    <line class="st2" x1="18" y1="180" x2="24" y2="180"/>
    <line class="st4" x1="36" y1="180" x2="582" y2="180.01"/>
    <line class="st2" x1="588" y1="180.01" x2="594" y2="180.01"/>
  </g>
  <g>
    <line class="st1" x1="18" y1="54" x2="24" y2="54"/>
    <line class="st3" x1="36" y1="54" x2="582" y2="54.01"/>
    <line class="st1" x1="588" y1="54.01" x2="594" y2="54.01"/>
  </g>
  <g>
    <path d="M259.57,59.63h5.81v1.17h-4.42v3.59h4.08v1.15h-4.08v4.88h-1.39v-10.79Z"/>
    <path d="M273.83,66.49c0,2.87-1.98,4.11-3.86,4.11-2.1,0-3.71-1.54-3.71-3.99,0-2.59,1.7-4.11,3.84-4.11s3.73,1.62,3.73,3.99ZM267.68,66.57c0,1.7.98,2.98,2.35,2.98s2.35-1.26,2.35-3.01c0-1.31-.66-2.98-2.32-2.98s-2.39,1.54-2.39,3.01Z"/>
    <path d="M275.6,59.06h1.41v11.36h-1.41v-11.36Z"/>
    <path d="M286.07,59.06v9.36c0,.69.02,1.47.06,2h-1.26l-.06-1.34h-.03c-.43.86-1.38,1.52-2.64,1.52-1.87,0-3.31-1.58-3.31-3.94-.02-2.58,1.58-4.16,3.47-4.16,1.18,0,1.98.56,2.34,1.18h.03v-4.63h1.41ZM284.66,65.83c0-.18-.02-.42-.06-.59-.21-.9-.98-1.63-2.03-1.63-1.46,0-2.32,1.28-2.32,2.99,0,1.57.77,2.87,2.29,2.87.94,0,1.81-.62,2.06-1.68.05-.19.06-.38.06-.61v-1.34Z"/>
    <path d="M296.08,70.42l-.11-.98h-.05c-.43.61-1.26,1.15-2.37,1.15-1.57,0-2.37-1.1-2.37-2.23,0-1.87,1.67-2.9,4.66-2.88v-.16c0-.64-.18-1.79-1.76-1.79-.72,0-1.47.22-2.02.58l-.32-.93c.64-.42,1.57-.69,2.54-.69,2.37,0,2.95,1.62,2.95,3.17v2.9c0,.67.03,1.33.13,1.86h-1.28ZM295.88,66.47c-1.54-.03-3.28.24-3.28,1.74,0,.91.61,1.34,1.33,1.34,1.01,0,1.65-.64,1.87-1.3.05-.14.08-.3.08-.45v-1.34Z"/>
    <path d="M299.51,64.77c0-.8-.02-1.46-.06-2.1h1.25l.08,1.28h.03c.38-.74,1.28-1.46,2.56-1.46,1.07,0,2.74.64,2.74,3.3v4.63h-1.41v-4.47c0-1.25-.46-2.29-1.79-2.29-.93,0-1.65.66-1.89,1.44-.06.18-.1.42-.1.66v4.66h-1.41v-5.65Z"/>
    <path d="M315.08,59.06v9.36c0,.69.02,1.47.06,2h-1.26l-.06-1.34h-.03c-.43.86-1.38,1.52-2.64,1.52-1.87,0-3.31-1.58-3.31-3.94-.02-2.58,1.58-4.16,3.47-4.16,1.18,0,1.99.56,2.34,1.18h.03v-4.63h1.41ZM313.67,65.83c0-.18-.02-.42-.06-.59-.21-.9-.98-1.63-2.03-1.63-1.46,0-2.32,1.28-2.32,2.99,0,1.57.77,2.87,2.29,2.87.94,0,1.81-.62,2.07-1.68.05-.19.06-.38.06-.61v-1.34Z"/>
    <path d="M320.85,59.76c.67-.11,1.55-.21,2.67-.21,1.38,0,2.38.32,3.03.9.59.51.94,1.3.94,2.26s-.29,1.75-.83,2.31c-.74.78-1.94,1.18-3.3,1.18-.42,0-.8-.02-1.12-.1v4.32h-1.39v-10.66ZM322.24,64.96c.3.08.69.11,1.15.11,1.68,0,2.71-.82,2.71-2.3s-1.01-2.11-2.54-2.11c-.61,0-1.07.05-1.31.11v4.19Z"/>
    <path d="M329.06,65.09c0-.91-.02-1.7-.06-2.42h1.23l.05,1.52h.06c.35-1.04,1.2-1.7,2.14-1.7.16,0,.27.02.4.05v1.33c-.14-.03-.29-.05-.48-.05-.99,0-1.7.75-1.89,1.81-.03.19-.06.42-.06.66v4.13h-1.39v-5.33Z"/>
    <path d="M334.91,66.81c.03,1.9,1.25,2.69,2.66,2.69,1.01,0,1.62-.18,2.14-.4l.24,1.01c-.5.22-1.34.48-2.58.48-2.38,0-3.81-1.57-3.81-3.91s1.38-4.18,3.63-4.18c2.53,0,3.2,2.23,3.2,3.65,0,.29-.03.51-.05.66h-5.44ZM339.04,65.8c.02-.9-.37-2.29-1.95-2.29-1.42,0-2.05,1.31-2.16,2.29h4.11Z"/>
    <path d="M341.95,68.98c.42.27,1.15.56,1.86.56,1.02,0,1.5-.51,1.5-1.15,0-.67-.4-1.04-1.44-1.42-1.39-.5-2.05-1.26-2.05-2.19,0-1.25,1.01-2.27,2.67-2.27.78,0,1.47.22,1.9.48l-.35,1.02c-.3-.19-.87-.45-1.58-.45-.83,0-1.3.48-1.3,1.06,0,.64.46.93,1.47,1.31,1.34.51,2.03,1.18,2.03,2.34,0,1.36-1.06,2.32-2.9,2.32-.85,0-1.63-.21-2.18-.53l.35-1.07Z"/>
    <path d="M348.29,68.98c.42.27,1.15.56,1.86.56,1.02,0,1.5-.51,1.5-1.15,0-.67-.4-1.04-1.44-1.42-1.39-.5-2.05-1.26-2.05-2.19,0-1.25,1.01-2.27,2.67-2.27.78,0,1.47.22,1.9.48l-.35,1.02c-.3-.19-.87-.45-1.58-.45-.83,0-1.3.48-1.3,1.06,0,.64.46.93,1.47,1.31,1.34.51,2.03,1.18,2.03,2.34,0,1.36-1.06,2.32-2.9,2.32-.85,0-1.63-.21-2.18-.53l.35-1.07Z"/>
  </g>
  <g>
    <path d="M483.29,703.38l.64,2.46c.14.54.27,1.04.36,1.54h.03c.11-.49.27-1.01.43-1.53l.79-2.47h.74l.75,2.42c.18.58.32,1.09.43,1.58h.03c.08-.49.21-1,.37-1.57l.69-2.43h.87l-1.56,4.84h-.8l-.74-2.31c-.17-.54-.31-1.02-.43-1.59h-.02c-.12.58-.27,1.08-.44,1.6l-.78,2.3h-.8l-1.46-4.84h.9Z"/>
    <path d="M490.3,701.12h.88v3.02h.02c.14-.25.36-.47.63-.62.26-.15.57-.25.9-.25.65,0,1.69.4,1.69,2.07v2.88h-.88v-2.78c0-.78-.29-1.44-1.12-1.44-.57,0-1.02.4-1.18.88-.05.12-.06.25-.06.42v2.92h-.88v-7.1Z"/>
    <path d="M498.53,708.22l-.07-.61h-.03c-.27.38-.79.72-1.48.72-.98,0-1.48-.69-1.48-1.39,0-1.17,1.04-1.81,2.91-1.8v-.1c0-.4-.11-1.12-1.1-1.12-.45,0-.92.14-1.26.36l-.2-.58c.4-.26.98-.43,1.59-.43,1.48,0,1.84,1.01,1.84,1.98v1.81c0,.42.02.83.08,1.16h-.8ZM498.4,705.75c-.96-.02-2.05.15-2.05,1.09,0,.57.38.84.83.84.63,0,1.03-.4,1.17-.81.03-.09.05-.19.05-.28v-.84Z"/>
    <path d="M501.69,701.99v1.39h1.26v.67h-1.26v2.61c0,.6.17.94.66.94.23,0,.4-.03.51-.06l.04.66c-.17.07-.44.12-.78.12-.41,0-.74-.13-.95-.37-.25-.26-.34-.69-.34-1.26v-2.64h-.75v-.67h.75v-1.16l.86-.23Z"/>
    <path d="M503.94,704.69c0-.5,0-.91-.04-1.31h.77l.04.78h.03c.27-.46.72-.89,1.52-.89.66,0,1.16.4,1.37.97h.02c.15-.27.34-.48.54-.63.29-.22.61-.34,1.07-.34.64,0,1.59.42,1.59,2.1v2.85h-.86v-2.74c0-.93-.34-1.49-1.05-1.49-.5,0-.89.37-1.04.8-.04.12-.07.28-.07.44v2.99h-.86v-2.9c0-.77-.34-1.33-1.01-1.33-.55,0-.95.44-1.09.88-.05.13-.07.28-.07.43v2.92h-.86v-3.53Z"/>
    <path d="M514.96,708.22l-.07-.61h-.03c-.27.38-.79.72-1.48.72-.98,0-1.48-.69-1.48-1.39,0-1.17,1.04-1.81,2.91-1.8v-.1c0-.4-.11-1.12-1.1-1.12-.45,0-.92.14-1.26.36l-.2-.58c.4-.26.98-.43,1.59-.43,1.48,0,1.84,1.01,1.84,1.98v1.81c0,.42.02.83.08,1.16h-.8ZM514.83,705.75c-.96-.02-2.05.15-2.05,1.09,0,.57.38.84.83.84.63,0,1.03-.4,1.17-.81.03-.09.05-.19.05-.28v-.84Z"/>
    <path d="M517.97,705.6h.02c.12-.17.29-.38.43-.55l1.42-1.67h1.06l-1.87,1.99,2.13,2.85h-1.07l-1.67-2.32-.45.5v1.82h-.87v-7.1h.87v4.48Z"/>
    <path d="M522.28,705.96c.02,1.19.78,1.68,1.66,1.68.63,0,1.01-.11,1.34-.25l.15.63c-.31.14-.84.3-1.61.3-1.49,0-2.38-.98-2.38-2.44s.86-2.61,2.27-2.61c1.58,0,2,1.39,2,2.28,0,.18-.02.32-.03.41h-3.4ZM524.86,705.33c.01-.56-.23-1.43-1.22-1.43-.89,0-1.28.82-1.35,1.43h2.57Z"/>
    <path d="M529.48,708.22l-.07-.61h-.03c-.27.38-.79.72-1.48.72-.98,0-1.48-.69-1.48-1.39,0-1.17,1.04-1.81,2.91-1.8v-.1c0-.4-.11-1.12-1.1-1.12-.45,0-.92.14-1.26.36l-.2-.58c.4-.26.98-.43,1.59-.43,1.48,0,1.84,1.01,1.84,1.98v1.81c0,.42.02.83.08,1.16h-.8ZM529.35,705.75c-.96-.02-2.05.15-2.05,1.09,0,.57.38.84.83.84.63,0,1.03-.4,1.17-.81.03-.09.05-.19.05-.28v-.84Z"/>
    <path d="M531.62,704.89c0-.57,0-1.06-.04-1.51h.77l.03.95h.04c.22-.65.75-1.06,1.34-1.06.1,0,.17,0,.25.03v.83c-.09-.02-.18-.03-.3-.03-.62,0-1.06.47-1.18,1.13-.02.12-.04.26-.04.41v2.58h-.87v-3.33Z"/>
    <path d="M536.19,701.99v1.39h1.26v.67h-1.26v2.61c0,.6.17.94.66.94.23,0,.4-.03.51-.06l.04.66c-.17.07-.44.12-.78.12-.41,0-.74-.13-.95-.37-.25-.26-.34-.69-.34-1.26v-2.64h-.75v-.67h.75v-1.16l.86-.23Z"/>
    <path d="M538.2,707.7c0-.37.25-.63.6-.63s.59.26.59.63-.23.63-.6.63c-.35,0-.59-.27-.59-.63Z"/>
    <path d="M543.93,708.04c-.23.12-.74.28-1.39.28-1.46,0-2.41-.99-2.41-2.47s1.02-2.57,2.6-2.57c.52,0,.98.13,1.22.25l-.2.68c-.21-.12-.54-.23-1.02-.23-1.11,0-1.71.82-1.71,1.83,0,1.12.72,1.81,1.68,1.81.5,0,.83-.13,1.08-.24l.15.66Z"/>
    <path d="M549.28,705.76c0,1.79-1.24,2.57-2.41,2.57-1.31,0-2.32-.96-2.32-2.49,0-1.62,1.06-2.57,2.4-2.57s2.33,1.01,2.33,2.49ZM545.44,705.81c0,1.06.61,1.86,1.47,1.86s1.47-.79,1.47-1.88c0-.82-.41-1.86-1.45-1.86s-1.49.96-1.49,1.88Z"/>
    <path d="M550.39,704.69c0-.5,0-.91-.04-1.31h.77l.04.78h.03c.27-.46.72-.89,1.52-.89.66,0,1.16.4,1.37.97h.02c.15-.27.34-.48.54-.63.29-.22.61-.34,1.07-.34.64,0,1.59.42,1.59,2.1v2.85h-.86v-2.74c0-.93-.34-1.49-1.05-1.49-.5,0-.89.37-1.04.8-.04.12-.07.28-.07.44v2.99h-.86v-2.9c0-.77-.34-1.33-1.01-1.33-.55,0-.95.44-1.09.88-.05.13-.07.28-.07.43v2.92h-.86v-3.53Z"/>
  </g>
  <g>
    <path d="M226.27,190.82c1.01-.17,2.33-.31,4.01-.31,2.06,0,3.58.48,4.54,1.34.89.77,1.42,1.94,1.42,3.38s-.43,2.62-1.25,3.46c-1.1,1.18-2.9,1.78-4.94,1.78-.62,0-1.2-.02-1.68-.14v6.48h-2.09v-15.99ZM228.36,198.62c.46.12,1.03.17,1.73.17,2.52,0,4.06-1.22,4.06-3.46s-1.51-3.17-3.82-3.17c-.91,0-1.61.07-1.97.17v6.29Z"/>
    <path d="M248.88,200.9c0,4.3-2.98,6.17-5.78,6.17-3.14,0-5.57-2.3-5.57-5.98,0-3.89,2.54-6.17,5.76-6.17s5.59,2.42,5.59,5.98ZM239.67,201.02c0,2.54,1.46,4.46,3.53,4.46s3.53-1.9,3.53-4.51c0-1.97-.98-4.46-3.48-4.46s-3.58,2.3-3.58,4.51Z"/>
    <path d="M259.83,206.37c-.55.29-1.78.67-3.34.67-3.5,0-5.78-2.38-5.78-5.93s2.45-6.17,6.24-6.17c1.25,0,2.35.31,2.93.6l-.48,1.63c-.5-.29-1.3-.55-2.45-.55-2.66,0-4.1,1.97-4.1,4.39,0,2.69,1.73,4.34,4.03,4.34,1.2,0,1.99-.31,2.59-.58l.36,1.58Z"/>
    <path d="M264.39,200.51h.05c.29-.41.7-.91,1.03-1.32l3.41-4.01h2.54l-4.49,4.78,5.11,6.84h-2.57l-4.01-5.57-1.08,1.2v4.37h-2.09v-17.04h2.09v10.75Z"/>
    <path d="M274.73,201.38c.05,2.86,1.87,4.03,3.98,4.03,1.51,0,2.42-.26,3.22-.6l.36,1.51c-.74.34-2.02.72-3.86.72-3.58,0-5.71-2.35-5.71-5.86s2.06-6.26,5.45-6.26c3.79,0,4.8,3.34,4.8,5.47,0,.43-.05.77-.07.98h-8.16ZM280.92,199.87c.02-1.34-.55-3.43-2.93-3.43-2.14,0-3.07,1.97-3.24,3.43h6.17Z"/>
    <path d="M288.12,191.85v3.34h3.02v1.61h-3.02v6.26c0,1.44.41,2.26,1.58,2.26.55,0,.96-.07,1.22-.14l.1,1.58c-.41.17-1.06.29-1.87.29-.98,0-1.78-.31-2.28-.89-.6-.62-.82-1.66-.82-3.02v-6.34h-1.8v-1.61h1.8v-2.78l2.06-.55Z"/>
    <path d="M298.68,190.62h8.71v1.75h-6.62v5.38h6.12v1.73h-6.12v7.32h-2.09v-16.18Z"/>
    <path d="M320.07,200.9c0,4.3-2.98,6.17-5.79,6.17-3.14,0-5.57-2.3-5.57-5.98,0-3.89,2.54-6.17,5.76-6.17s5.59,2.42,5.59,5.98ZM310.85,201.02c0,2.54,1.46,4.46,3.53,4.46s3.53-1.9,3.53-4.51c0-1.97-.98-4.46-3.48-4.46s-3.58,2.3-3.58,4.51Z"/>
    <path d="M322.73,189.76h2.11v17.04h-2.11v-17.04Z"/>
    <path d="M338.43,189.76v14.04c0,1.03.02,2.21.1,3h-1.9l-.1-2.02h-.05c-.65,1.3-2.06,2.28-3.96,2.28-2.81,0-4.97-2.38-4.97-5.9-.02-3.86,2.38-6.24,5.21-6.24,1.78,0,2.98.84,3.5,1.78h.05v-6.94h2.11ZM336.31,199.91c0-.26-.02-.62-.1-.89-.31-1.34-1.46-2.45-3.05-2.45-2.18,0-3.48,1.92-3.48,4.49,0,2.35,1.15,4.3,3.43,4.3,1.42,0,2.71-.94,3.1-2.52.07-.29.1-.58.1-.91v-2.02Z"/>
    <path d="M347.09,190.62h2.09v14.43h6.91v1.75h-9v-16.18Z"/>
    <path d="M360.7,191.92c.02.72-.5,1.3-1.34,1.3-.74,0-1.27-.58-1.27-1.3s.55-1.32,1.32-1.32,1.3.58,1.3,1.32ZM358.34,206.8v-11.62h2.11v11.62h-2.11Z"/>
    <path d="M363.96,198.33c0-1.2-.02-2.18-.1-3.14h1.87l.12,1.92h.05c.58-1.1,1.92-2.18,3.84-2.18,1.61,0,4.1.96,4.1,4.94v6.94h-2.11v-6.7c0-1.87-.7-3.43-2.69-3.43-1.39,0-2.47.98-2.83,2.16-.1.26-.14.62-.14.98v6.98h-2.11v-8.47Z"/>
    <path d="M378.46,201.38c.05,2.86,1.87,4.03,3.98,4.03,1.51,0,2.42-.26,3.22-.6l.36,1.51c-.74.34-2.02.72-3.86.72-3.58,0-5.71-2.35-5.71-5.86s2.06-6.26,5.45-6.26c3.79,0,4.8,3.34,4.8,5.47,0,.43-.05.77-.07.98h-8.16ZM384.65,199.87c.02-1.34-.55-3.43-2.93-3.43-2.14,0-3.07,1.97-3.24,3.43h6.17Z"/>
  </g>
  <g>
    <line class="st2" x1="96.23" y1="250.19" x2="96.23" y2="651.73"/>
    <path d="M86.63,263.86c.46.3,1.08.16,1.38-.31l8.22-12.91,8.22,12.91c.3.47.92.6,1.38.31.46-.3.6-.92.31-1.38l-9.06-14.23c-.18-.29-.5-.46-.84-.46s-.66.17-.84.46l-9.06,14.23c-.11.17-.16.35-.16.54,0,.33.16.65.46.84Z"/>
    <path d="M86.63,638.06c.46-.3,1.08-.16,1.38.31l8.22,12.91,8.22-12.91c.3-.47.92-.6,1.38-.31.46.3.6.92.31,1.38l-9.06,14.23c-.18.29-.5.46-.84.46s-.66-.17-.84-.46l-9.06-14.23c-.11-.17-.16-.35-.16-.54,0-.33.16-.65.46-.84Z"/>
  </g>
  <g>
    <line class="st1" x1="130.76" y1="37.2" x2="130.76" y2="178.8"/>
    <path d="M125.96,44.04c.23.15.54.08.69-.15l4.11-6.45,4.11,6.45c.15.23.46.3.69.15.23-.15.3-.46.15-.69l-4.53-7.11c-.09-.14-.25-.23-.42-.23s-.33.09-.42.23l-4.53,7.11c-.05.08-.08.18-.08.27,0,.17.08.33.23.42Z"/>
    <path d="M125.96,171.97c.23-.15.54-.08.69.15l4.11,6.45,4.11-6.45c.15-.23.46-.3.69-.15s.3.46.15.69l-4.53,7.11c-.09.14-.25.23-.42.23s-.33-.09-.42-.23l-4.53-7.11c-.05-.08-.08-.18-.08-.27,0-.17.08-.33.23-.42Z"/>
  </g>
  <g>
    <path d="M106.34,414.54c-.34-.94-.89-2.78-.89-4.97,0-2.45.62-4.46,2.14-6.05,1.34-1.39,3.5-2.26,6.02-2.26,4.82.02,8.35,3.34,8.35,8.76,0,1.87-.41,3.34-.74,4.03l-1.7-.5c.38-.86.7-1.94.7-3.58,0-3.94-2.45-6.5-6.5-6.5s-6.53,2.47-6.53,6.24c0,1.37.19,2.3.43,2.78h4.82v-3.29h1.68v5.33h-7.78Z"/>
    <path d="M113.62,417.66c1.37,0,2.54-.02,3.62-.1v1.85l-2.28.07v.1c1.56.53,2.54,1.8,2.54,3.22,0,.24-.02.41-.07.6h-1.99c.05-.22.07-.43.07-.72,0-1.49-1.13-2.54-2.71-2.83-.29-.05-.62-.1-.98-.1h-6.19v-2.09h7.99Z"/>
    <path d="M105.62,431.82l1.46-.17v-.07c-.91-.65-1.73-1.9-1.73-3.55,0-2.35,1.66-3.55,3.34-3.55,2.81,0,4.34,2.5,4.32,6.99h.24c.96,0,2.69-.26,2.69-2.64,0-1.08-.34-2.21-.86-3.02l1.39-.48c.62.96,1.03,2.35,1.03,3.82,0,3.55-2.42,4.42-4.75,4.42h-4.34c-1.01,0-1.99.05-2.78.19v-1.92ZM111.55,431.51c.05-2.3-.36-4.92-2.62-4.92-1.37,0-2.02.91-2.02,1.99,0,1.51.96,2.47,1.94,2.81.22.07.46.12.67.12h2.02Z"/>
    <path d="M105.62,436.96h11.62v2.11h-11.62v-2.11ZM120.51,439.31c-.72.02-1.3-.5-1.3-1.34,0-.74.58-1.27,1.3-1.27s1.32.55,1.32,1.32-.58,1.3-1.32,1.3Z"/>
    <path d="M114.1,442.58c1.2,0,2.18-.02,3.14-.1v1.87l-1.92.12v.05c1.1.58,2.18,1.92,2.18,3.84,0,1.61-.96,4.1-4.94,4.1h-6.94v-2.11h6.7c1.87,0,3.43-.7,3.43-2.69,0-1.39-.98-2.47-2.16-2.83-.26-.1-.62-.14-.98-.14h-6.98v-2.11h8.47Z"/>
    <path d="M121.8,461.06v2.09h-14.43v6.91h-1.75v-9h16.18Z"/>
    <path d="M105.62,472.31h11.62v2.11h-11.62v-2.11ZM120.51,474.66c-.72.02-1.3-.5-1.3-1.34,0-.74.58-1.27,1.3-1.27s1.32.55,1.32,1.32-.58,1.3-1.32,1.3Z"/>
    <path d="M114.1,477.93c1.2,0,2.18-.02,3.14-.1v1.87l-1.92.12v.05c1.1.58,2.18,1.92,2.18,3.84,0,1.61-.96,4.1-4.94,4.1h-6.94v-2.11h6.7c1.87,0,3.43-.7,3.43-2.69,0-1.39-.98-2.47-2.16-2.83-.26-.1-.62-.14-.98-.14h-6.98v-2.11h8.47Z"/>
    <path d="M111.05,492.42c-2.86.05-4.03,1.87-4.03,3.98,0,1.51.26,2.42.6,3.22l-1.51.36c-.34-.74-.72-2.02-.72-3.86,0-3.58,2.35-5.71,5.86-5.71s6.26,2.06,6.26,5.45c0,3.79-3.34,4.8-5.47,4.8-.43,0-.77-.05-.98-.07v-8.16ZM112.56,498.62c1.34.02,3.43-.55,3.43-2.93,0-2.14-1.97-3.07-3.43-3.24v6.17Z"/>
  </g>
  <g>
    <path d="M307.54,619.49c.94.58,2.3,1.06,3.74,1.06,2.14,0,3.38-1.13,3.38-2.76,0-1.51-.86-2.38-3.05-3.22-2.64-.94-4.27-2.3-4.27-4.58,0-2.52,2.09-4.39,5.23-4.39,1.66,0,2.86.38,3.58.79l-.58,1.7c-.53-.29-1.61-.77-3.07-.77-2.21,0-3.05,1.32-3.05,2.42,0,1.51.98,2.26,3.22,3.12,2.74,1.06,4.13,2.38,4.13,4.75,0,2.5-1.85,4.66-5.67,4.66-1.56,0-3.26-.46-4.13-1.03l.53-1.75Z"/>
    <path d="M327.65,620.24h-.05c-.62,1.15-1.92,2.06-3.79,2.06-2.71,0-4.92-2.35-4.92-5.88,0-4.34,2.81-6.26,5.26-6.26,1.8,0,3,.89,3.58,2.02h.05l.07-1.75h1.99c-.05.98-.07,1.99-.07,3.19v13.18h-2.11v-6.55ZM327.65,615.12c0-.29-.02-.62-.1-.89-.31-1.3-1.44-2.4-3.02-2.4-2.18,0-3.5,1.85-3.5,4.46,0,2.3,1.1,4.32,3.43,4.32,1.37,0,2.54-.84,3.02-2.3.1-.29.17-.7.17-1.01v-2.18Z"/>
    <path d="M342.96,618.87c0,1.2.02,2.26.1,3.17h-1.87l-.12-1.9h-.05c-.55.94-1.78,2.16-3.84,2.16-1.82,0-4.01-1.01-4.01-5.09v-6.79h2.11v6.43c0,2.21.67,3.7,2.59,3.7,1.42,0,2.4-.98,2.78-1.92.12-.31.19-.7.19-1.08v-7.13h2.11v8.45Z"/>
    <path d="M352.9,622.04l-.17-1.46h-.07c-.65.91-1.9,1.73-3.55,1.73-2.35,0-3.55-1.66-3.55-3.34,0-2.81,2.5-4.34,6.99-4.32v-.24c0-.96-.26-2.69-2.64-2.69-1.08,0-2.21.34-3.02.86l-.48-1.39c.96-.62,2.35-1.03,3.82-1.03,3.55,0,4.42,2.42,4.42,4.75v4.34c0,1.01.05,1.99.19,2.78h-1.92ZM352.58,616.11c-2.3-.05-4.92.36-4.92,2.62,0,1.37.91,2.02,1.99,2.02,1.51,0,2.47-.96,2.81-1.94.07-.22.12-.46.12-.67v-2.02Z"/>
    <path d="M358.03,614.04c0-1.37-.02-2.54-.1-3.62h1.85l.07,2.28h.1c.53-1.56,1.8-2.54,3.22-2.54.24,0,.41.02.6.07v1.99c-.22-.05-.43-.07-.72-.07-1.49,0-2.54,1.13-2.83,2.71-.05.29-.1.62-.1.98v6.19h-2.09v-7.99Z"/>
    <path d="M366.82,616.61c.05,2.86,1.87,4.03,3.98,4.03,1.51,0,2.42-.26,3.22-.6l.36,1.51c-.74.34-2.02.72-3.86.72-3.58,0-5.71-2.35-5.71-5.86s2.06-6.26,5.45-6.26c3.79,0,4.8,3.34,4.8,5.47,0,.43-.05.77-.07.98h-8.16ZM373.01,615.1c.02-1.34-.55-3.43-2.93-3.43-2.14,0-3.07,1.97-3.24,3.43h6.17Z"/>
    <path d="M382.82,606.05c1.01-.17,2.33-.31,4.01-.31,2.06,0,3.58.48,4.54,1.34.89.77,1.42,1.94,1.42,3.38s-.43,2.62-1.25,3.46c-1.1,1.18-2.9,1.78-4.95,1.78-.62,0-1.2-.02-1.68-.14v6.48h-2.09v-15.99ZM384.91,613.85c.46.12,1.03.17,1.73.17,2.52,0,4.06-1.22,4.06-3.46s-1.51-3.17-3.82-3.17c-.91,0-1.61.07-1.97.17v6.29Z"/>
    <path d="M401.33,622.04l-.17-1.46h-.07c-.65.91-1.9,1.73-3.55,1.73-2.35,0-3.55-1.66-3.55-3.34,0-2.81,2.5-4.34,6.99-4.32v-.24c0-.96-.26-2.69-2.64-2.69-1.08,0-2.21.34-3.02.86l-.48-1.39c.96-.62,2.35-1.03,3.82-1.03,3.55,0,4.42,2.42,4.42,4.75v4.34c0,1.01.05,1.99.19,2.78h-1.92ZM401.02,616.11c-2.3-.05-4.92.36-4.92,2.62,0,1.37.91,2.02,1.99,2.02,1.51,0,2.47-.96,2.81-1.94.07-.22.12-.46.12-.67v-2.02Z"/>
    <path d="M408.91,607.08v3.34h3.02v1.61h-3.02v6.26c0,1.44.41,2.26,1.58,2.26.55,0,.96-.07,1.22-.14l.1,1.58c-.41.17-1.06.29-1.87.29-.98,0-1.78-.31-2.28-.89-.6-.62-.82-1.66-.82-3.02v-6.34h-1.8v-1.61h1.8v-2.78l2.06-.55Z"/>
    <path d="M422.45,621.61c-.55.29-1.78.67-3.34.67-3.5,0-5.78-2.38-5.78-5.93s2.45-6.17,6.24-6.17c1.25,0,2.35.31,2.93.6l-.48,1.63c-.5-.29-1.3-.55-2.45-.55-2.66,0-4.1,1.97-4.1,4.39,0,2.69,1.73,4.34,4.03,4.34,1.2,0,1.99-.31,2.59-.58l.36,1.58Z"/>
    <path d="M424.92,605h2.11v7.25h.05c.34-.6.86-1.13,1.51-1.49.62-.36,1.37-.6,2.16-.6,1.56,0,4.06.96,4.06,4.97v6.91h-2.11v-6.67c0-1.87-.7-3.46-2.69-3.46-1.37,0-2.45.96-2.83,2.11-.12.29-.14.6-.14,1.01v7.01h-2.11v-17.04Z"/>
    <path d="M443.4,606.05c1.01-.17,2.33-.31,4.01-.31,2.06,0,3.58.48,4.54,1.34.89.77,1.42,1.94,1.42,3.38s-.43,2.62-1.25,3.46c-1.1,1.18-2.9,1.78-4.94,1.78-.62,0-1.2-.02-1.68-.14v6.48h-2.09v-15.99ZM445.49,613.85c.46.12,1.03.17,1.73.17,2.52,0,4.06-1.22,4.06-3.46s-1.51-3.17-3.82-3.17c-.91,0-1.61.07-1.97.17v6.29Z"/>
    <path d="M466.01,616.13c0,4.3-2.98,6.17-5.79,6.17-3.14,0-5.57-2.3-5.57-5.98,0-3.89,2.54-6.17,5.76-6.17s5.59,2.42,5.59,5.98ZM456.79,616.25c0,2.54,1.46,4.46,3.53,4.46s3.53-1.9,3.53-4.51c0-1.97-.98-4.46-3.48-4.46s-3.58,2.3-3.58,4.51Z"/>
    <path d="M476.95,621.61c-.55.29-1.78.67-3.34.67-3.5,0-5.79-2.38-5.79-5.93s2.45-6.17,6.24-6.17c1.25,0,2.35.31,2.93.6l-.48,1.63c-.5-.29-1.3-.55-2.45-.55-2.67,0-4.1,1.97-4.1,4.39,0,2.69,1.73,4.34,4.03,4.34,1.2,0,1.99-.31,2.59-.58l.36,1.58Z"/>
    <path d="M481.51,615.75h.05c.29-.41.7-.91,1.03-1.32l3.41-4.01h2.54l-4.49,4.78,5.11,6.84h-2.57l-4.01-5.57-1.08,1.2v4.37h-2.09v-17.04h2.09v10.75Z"/>
    <path d="M491.85,616.61c.05,2.86,1.87,4.03,3.98,4.03,1.51,0,2.42-.26,3.22-.6l.36,1.51c-.74.34-2.02.72-3.86.72-3.58,0-5.71-2.35-5.71-5.86s2.06-6.26,5.45-6.26c3.79,0,4.8,3.34,4.8,5.47,0,.43-.05.77-.07.98h-8.16ZM498.05,615.1c.02-1.34-.55-3.43-2.93-3.43-2.14,0-3.07,1.97-3.24,3.43h6.17Z"/>
    <path d="M505.25,607.08v3.34h3.02v1.61h-3.02v6.26c0,1.44.41,2.26,1.58,2.26.55,0,.96-.07,1.22-.14l.1,1.58c-.41.17-1.06.29-1.87.29-.98,0-1.78-.31-2.28-.89-.6-.62-.82-1.66-.82-3.02v-6.34h-1.8v-1.61h1.8v-2.78l2.06-.55Z"/>
    <path d="M311.94,649.59c0-.89.6-1.51,1.44-1.51s1.42.62,1.42,1.51-.55,1.51-1.44,1.51c-.84,0-1.42-.65-1.42-1.51Z"/>
    <path d="M326.05,637.01h-5.95l-.6,4.01c.36-.05.7-.1,1.27-.1,1.2,0,2.4.26,3.36.84,1.22.7,2.23,2.04,2.23,4.01,0,3.05-2.42,5.33-5.81,5.33-1.7,0-3.14-.48-3.89-.96l.53-1.61c.65.38,1.92.86,3.34.86,1.99,0,3.7-1.3,3.7-3.38-.02-2.02-1.37-3.46-4.49-3.46-.89,0-1.58.1-2.16.17l1.01-7.49h7.46v1.78Z"/>
    <path d="M332.36,634.4c-.55,2.02-1.58,4.58-2.23,5.69l-1.34.17c.5-1.42,1.15-3.91,1.42-5.64l2.16-.22ZM335.92,634.4c-.55,2.02-1.58,4.58-2.23,5.69l-1.34.17c.53-1.42,1.15-3.91,1.42-5.64l2.16-.22Z"/>
    <path d="M341.03,648.29c.94.58,2.3,1.06,3.74,1.06,2.14,0,3.38-1.13,3.38-2.76,0-1.51-.86-2.38-3.05-3.22-2.64-.94-4.27-2.3-4.27-4.58,0-2.52,2.09-4.39,5.23-4.39,1.66,0,2.86.38,3.58.79l-.58,1.7c-.53-.29-1.61-.77-3.07-.77-2.21,0-3.05,1.32-3.05,2.42,0,1.51.98,2.26,3.22,3.12,2.74,1.06,4.13,2.38,4.13,4.75,0,2.5-1.85,4.66-5.67,4.66-1.56,0-3.26-.46-4.13-1.03l.53-1.75Z"/>
    <path d="M354.39,645.41c.05,2.86,1.87,4.03,3.98,4.03,1.51,0,2.42-.26,3.22-.6l.36,1.51c-.74.34-2.02.72-3.86.72-3.58,0-5.71-2.35-5.71-5.86s2.06-6.26,5.45-6.26c3.79,0,4.8,3.34,4.8,5.47,0,.43-.05.77-.07.98h-8.16ZM360.59,643.9c.02-1.34-.55-3.43-2.93-3.43-2.14,0-3.07,1.97-3.24,3.43h6.17Z"/>
    <path d="M371.67,650.84l-.17-1.46h-.07c-.65.91-1.9,1.73-3.55,1.73-2.35,0-3.55-1.66-3.55-3.34,0-2.81,2.5-4.34,6.99-4.32v-.24c0-.96-.26-2.69-2.64-2.69-1.08,0-2.21.34-3.02.86l-.48-1.39c.96-.62,2.35-1.03,3.82-1.03,3.55,0,4.42,2.42,4.42,4.75v4.34c0,1.01.05,1.99.19,2.78h-1.92ZM371.36,644.91c-2.3-.05-4.92.36-4.92,2.62,0,1.37.91,2.02,1.99,2.02,1.51,0,2.47-.96,2.81-1.94.07-.22.12-.46.12-.67v-2.02Z"/>
    <path d="M376.81,642.36c0-1.2-.02-2.18-.1-3.14h1.85l.1,1.87h.07c.65-1.1,1.73-2.14,3.65-2.14,1.58,0,2.78.96,3.29,2.33h.05c.36-.65.82-1.15,1.3-1.51.7-.53,1.46-.82,2.57-.82,1.54,0,3.82,1.01,3.82,5.04v6.84h-2.06v-6.58c0-2.23-.82-3.58-2.52-3.58-1.2,0-2.14.89-2.5,1.92-.1.29-.17.67-.17,1.06v7.18h-2.06v-6.96c0-1.85-.82-3.19-2.42-3.19-1.32,0-2.28,1.06-2.62,2.11-.12.31-.17.67-.17,1.03v7.01h-2.06v-8.47Z"/>
    <path d="M404.6,645.75l-1.68,5.09h-2.16l5.5-16.18h2.52l5.52,16.18h-2.23l-1.73-5.09h-5.74ZM409.91,644.12l-1.58-4.66c-.36-1.06-.6-2.02-.84-2.95h-.05c-.24.96-.5,1.94-.82,2.93l-1.58,4.68h4.87Z"/>
    <path d="M416.53,633.8h2.11v17.04h-2.11v-17.04Z"/>
    <path d="M422.19,633.8h2.11v17.04h-2.11v-17.04Z"/>
    <path d="M438.37,644.93c0,4.3-2.98,6.17-5.78,6.17-3.14,0-5.57-2.3-5.57-5.98,0-3.89,2.54-6.17,5.76-6.17s5.59,2.42,5.59,5.98ZM429.15,645.05c0,2.54,1.46,4.46,3.53,4.46s3.53-1.9,3.53-4.51c0-1.97-.98-4.46-3.48-4.46s-3.58,2.3-3.58,4.51Z"/>
    <path d="M441.71,639.22l1.54,5.91c.34,1.3.65,2.5.86,3.7h.07c.26-1.18.65-2.42,1.03-3.67l1.9-5.93h1.78l1.8,5.81c.43,1.39.77,2.62,1.03,3.79h.07c.19-1.18.5-2.4.89-3.77l1.66-5.83h2.09l-3.75,11.62h-1.92l-1.78-5.54c-.41-1.3-.74-2.45-1.03-3.82h-.05c-.29,1.39-.65,2.59-1.06,3.84l-1.87,5.52h-1.92l-3.5-11.62h2.16Z"/>
    <path d="M464.87,650.84l-.17-1.46h-.07c-.65.91-1.9,1.73-3.55,1.73-2.35,0-3.55-1.66-3.55-3.34,0-2.81,2.5-4.34,6.98-4.32v-.24c0-.96-.26-2.69-2.64-2.69-1.08,0-2.21.34-3.02.86l-.48-1.39c.96-.62,2.35-1.03,3.82-1.03,3.55,0,4.42,2.42,4.42,4.75v4.34c0,1.01.05,1.99.19,2.78h-1.92ZM464.55,644.91c-2.3-.05-4.92.36-4.92,2.62,0,1.37.91,2.02,1.99,2.02,1.51,0,2.47-.96,2.81-1.94.07-.22.12-.46.12-.67v-2.02Z"/>
    <path d="M470,642.36c0-1.2-.02-2.18-.1-3.14h1.87l.12,1.92h.05c.58-1.1,1.92-2.18,3.84-2.18,1.61,0,4.1.96,4.1,4.94v6.94h-2.11v-6.7c0-1.87-.7-3.43-2.69-3.43-1.39,0-2.47.98-2.83,2.16-.1.26-.14.62-.14.98v6.98h-2.11v-8.47Z"/>
    <path d="M491.6,650.41c-.55.29-1.78.67-3.34.67-3.5,0-5.78-2.38-5.78-5.93s2.45-6.17,6.24-6.17c1.25,0,2.35.31,2.93.6l-.48,1.63c-.5-.29-1.3-.55-2.45-.55-2.66,0-4.1,1.97-4.1,4.39,0,2.69,1.73,4.34,4.03,4.34,1.2,0,1.99-.31,2.59-.58l.36,1.58Z"/>
    <path d="M495.11,645.41c.05,2.86,1.87,4.03,3.98,4.03,1.51,0,2.42-.26,3.22-.6l.36,1.51c-.74.34-2.02.72-3.86.72-3.58,0-5.71-2.35-5.71-5.86s2.06-6.26,5.45-6.26c3.79,0,4.8,3.34,4.8,5.47,0,.43-.05.77-.07.98h-8.16ZM501.3,643.9c.02-1.34-.55-3.43-2.93-3.43-2.14,0-3.07,1.97-3.24,3.43h6.17Z"/>
  </g>
  <g>
    <path d="M113.17,95.22h.86l1.07,1.1c2.53,2.66,3.87,3.86,5.44,3.87,1.06,0,2.03-.51,2.03-2.06,0-.94-.48-1.73-.88-2.21l.99-.45c.61.72,1.06,1.74,1.06,2.94,0,2.24-1.54,3.19-3.02,3.19-1.92,0-3.47-1.39-5.59-3.59l-.77-.83h-.03v4.67h-1.17v-6.64Z"/>
    <path d="M124.14,105.64c-1.34-.37-3.06-1.06-3.79-1.49l-.11-.9c.94.34,2.61.77,3.76.94l.14,1.44ZM124.14,108.01c-1.34-.37-3.06-1.06-3.79-1.49l-.11-.9c.94.35,2.61.77,3.76.94l.14,1.44Z"/>
  </g>
  <g>
    <line class="st1" x1="166.35" y1="37.2" x2="166.35" y2="718.8"/>
    <path d="M161.55,44.04c.23.15.54.08.69-.15l4.11-6.45,4.11,6.45c.15.23.46.3.69.15.23-.15.3-.46.15-.69l-4.53-7.11c-.09-.14-.25-.23-.42-.23s-.33.09-.42.23l-4.53,7.11c-.05.08-.08.18-.08.27,0,.17.08.33.23.42Z"/>
    <path d="M161.55,711.96c.23-.15.54-.08.69.15l4.11,6.45,4.11-6.45c.15-.23.46-.3.69-.15s.3.46.15.69l-4.53,7.11c-.09.14-.25.23-.42.23s-.33-.09-.42-.23l-4.53-7.11c-.05-.08-.08-.18-.08-.27,0-.17.08-.33.23-.42Z"/>
  </g>
  <g>
    <path d="M151.88,384.84c-.03.3,0,.66.05,1.14.11.82.45,1.58,1.01,2.18.62.69,1.54,1.18,2.77,1.38v-.05c-.7-.58-1.12-1.41-1.12-2.45,0-1.87,1.41-3.07,3.19-3.07,1.97,0,3.7,1.42,3.7,3.55s-1.73,3.44-4.39,3.44c-2.29,0-3.89-.77-4.88-1.79-.78-.8-1.26-1.9-1.39-3.03-.08-.51-.1-.96-.08-1.3h1.15ZM157.86,385.35c-1.3,0-2.21.78-2.21,2,0,.94.46,1.68,1.09,2.05.13.08.29.13.51.13,1.78,0,3.14-.66,3.14-2.13,0-1.2-1.06-2.05-2.53-2.05Z"/>
    <path d="M151.72,392.34c.59,0,1.01.4,1.01.96s-.42.94-1.01.94-1.01-.37-1.01-.96c0-.56.43-.94,1.01-.94Z"/>
    <path d="M160.1,401.75v-3.97l-2.67-.4c.03.24.06.46.06.85,0,.8-.18,1.6-.56,2.24-.46.82-1.36,1.49-2.67,1.49-2.03,0-3.55-1.62-3.55-3.87,0-1.14.32-2.1.64-2.59l1.07.35c-.26.43-.58,1.28-.58,2.23,0,1.33.86,2.46,2.26,2.46,1.34-.02,2.31-.91,2.31-2.99,0-.59-.06-1.06-.11-1.44l4.99.67v4.98h-1.18Z"/>
    <path d="M161.85,405.96c-1.34-.37-3.06-1.06-3.79-1.49l-.11-.9c.94.34,2.61.77,3.76.94l.14,1.44ZM161.85,408.33c-1.34-.37-3.06-1.06-3.79-1.49l-.11-.9c.94.35,2.61.77,3.76.94l.14,1.44Z"/>
  </g>
  <g>
    <line class="st1" x1="19.2" y1="352.5" x2="592.8" y2="352.5"/>
    <path d="M26.04,357.3c.15-.23.08-.54-.15-.69l-6.45-4.11,6.45-4.11c.23-.15.3-.46.15-.69-.15-.23-.46-.3-.69-.15l-7.11,4.53c-.14.09-.23.25-.23.42s.09.33.23.42l7.11,4.53c.08.05.18.08.27.08.17,0,.33-.08.42-.23Z"/>
    <path d="M585.96,357.3c-.15-.23-.08-.54.15-.69l6.45-4.11-6.45-4.11c-.23-.15-.3-.46-.15-.69s.46-.3.69-.15l7.11,4.53c.14.09.23.25.23.42s-.09.33-.23.42l-7.11,4.53c-.08.05-.18.08-.27.08-.17,0-.33-.08-.42-.23Z"/>
  </g>
  <g>
    <path d="M299.66,337.37c0-1.31.78-2.24,2.06-2.79l-.02-.05c-1.15-.54-1.65-1.44-1.65-2.34,0-1.65,1.39-2.77,3.22-2.77,2.02,0,3.03,1.26,3.03,2.56,0,.88-.43,1.82-1.71,2.43v.05c1.3.51,2.1,1.42,2.1,2.69,0,1.81-1.55,3.03-3.54,3.03-2.18,0-3.49-1.3-3.49-2.82ZM305.26,337.3c0-1.26-.88-1.87-2.29-2.27-1.22.35-1.87,1.15-1.87,2.15-.05,1.06.75,1.98,2.08,1.98s2.08-.78,2.08-1.86ZM301.38,332.1c0,1.04.78,1.6,1.98,1.92.9-.3,1.58-.94,1.58-1.89,0-.83-.5-1.7-1.76-1.7-1.17,0-1.81.77-1.81,1.66Z"/>
    <path d="M310.2,329.05c-.37,1.34-1.06,3.06-1.49,3.79l-.9.11c.34-.94.77-2.61.94-3.76l1.44-.14ZM312.57,329.05c-.37,1.34-1.06,3.06-1.49,3.79l-.9.11c.35-.94.77-2.61.94-3.76l1.44-.14Z"/>
  </g>
  <polyline class="st0" points="54 36 54 683.78 558 683.78 558 36"/>
  <g>
    <path d="M200.66,386.27h5.81v1.17h-4.42v3.59h4.08v1.15h-4.08v4.88h-1.39v-10.79Z"/>
    <path d="M214.92,393.12c0,2.87-1.98,4.11-3.86,4.11-2.1,0-3.71-1.54-3.71-3.99,0-2.59,1.7-4.11,3.84-4.11s3.73,1.62,3.73,3.99ZM208.78,393.2c0,1.7.98,2.98,2.35,2.98s2.35-1.26,2.35-3.01c0-1.31-.66-2.98-2.32-2.98s-2.39,1.54-2.39,3.01Z"/>
    <path d="M216.7,385.7h1.41v11.36h-1.41v-11.36Z"/>
    <path d="M227.16,385.7v9.36c0,.69.02,1.47.06,2h-1.26l-.06-1.34h-.03c-.43.86-1.38,1.52-2.64,1.52-1.87,0-3.31-1.58-3.31-3.94-.02-2.58,1.58-4.16,3.47-4.16,1.18,0,1.98.56,2.34,1.18h.03v-4.63h1.41ZM225.75,392.47c0-.18-.02-.42-.06-.59-.21-.9-.98-1.63-2.03-1.63-1.46,0-2.32,1.28-2.32,2.99,0,1.57.77,2.87,2.29,2.87.94,0,1.81-.62,2.06-1.68.05-.19.06-.38.06-.61v-1.34Z"/>
    <path d="M237.18,397.06l-.11-.98h-.05c-.43.61-1.26,1.15-2.37,1.15-1.57,0-2.37-1.1-2.37-2.22,0-1.87,1.67-2.9,4.66-2.88v-.16c0-.64-.18-1.79-1.76-1.79-.72,0-1.47.22-2.02.58l-.32-.93c.64-.42,1.57-.69,2.54-.69,2.37,0,2.95,1.62,2.95,3.17v2.9c0,.67.03,1.33.13,1.86h-1.28ZM236.97,393.11c-1.54-.03-3.28.24-3.28,1.74,0,.91.61,1.34,1.33,1.34,1.01,0,1.65-.64,1.87-1.3.05-.14.08-.3.08-.45v-1.34Z"/>
    <path d="M240.6,391.41c0-.8-.02-1.46-.06-2.1h1.25l.08,1.28h.03c.38-.74,1.28-1.46,2.56-1.46,1.07,0,2.74.64,2.74,3.3v4.63h-1.41v-4.47c0-1.25-.46-2.29-1.79-2.29-.93,0-1.65.66-1.89,1.44-.06.18-.1.42-.1.66v4.66h-1.41v-5.65Z"/>
    <path d="M256.17,385.7v9.36c0,.69.02,1.47.06,2h-1.26l-.06-1.34h-.03c-.43.86-1.38,1.52-2.64,1.52-1.87,0-3.31-1.58-3.31-3.94-.02-2.58,1.58-4.16,3.47-4.16,1.18,0,1.98.56,2.34,1.18h.03v-4.63h1.41ZM254.76,392.47c0-.18-.02-.42-.06-.59-.21-.9-.98-1.63-2.03-1.63-1.46,0-2.32,1.28-2.32,2.99,0,1.57.77,2.87,2.29,2.87.94,0,1.81-.62,2.06-1.68.05-.19.06-.38.06-.61v-1.34Z"/>
    <path d="M261.94,386.4c.67-.11,1.55-.21,2.67-.21,1.38,0,2.38.32,3.02.9.59.51.94,1.3.94,2.26s-.29,1.75-.83,2.31c-.74.78-1.94,1.18-3.3,1.18-.42,0-.8-.02-1.12-.1v4.32h-1.39v-10.66ZM263.34,391.6c.3.08.69.11,1.15.11,1.68,0,2.71-.82,2.71-2.3s-1.01-2.11-2.55-2.11c-.61,0-1.07.05-1.31.11v4.19Z"/>
    <path d="M270.15,391.73c0-.91-.02-1.7-.06-2.42h1.23l.05,1.52h.06c.35-1.04,1.2-1.7,2.14-1.7.16,0,.27.02.4.05v1.33c-.14-.03-.29-.05-.48-.05-.99,0-1.7.75-1.89,1.81-.03.19-.06.42-.06.66v4.13h-1.39v-5.33Z"/>
    <path d="M276.01,393.44c.03,1.9,1.25,2.69,2.66,2.69,1.01,0,1.62-.18,2.15-.4l.24,1.01c-.5.22-1.34.48-2.58.48-2.39,0-3.81-1.57-3.81-3.91s1.38-4.18,3.63-4.18c2.53,0,3.2,2.23,3.2,3.65,0,.29-.03.51-.05.66h-5.44ZM280.14,392.43c.02-.9-.37-2.29-1.95-2.29-1.42,0-2.05,1.31-2.16,2.29h4.11Z"/>
    <path d="M283.05,395.62c.42.27,1.15.56,1.86.56,1.02,0,1.5-.51,1.5-1.15,0-.67-.4-1.04-1.44-1.42-1.39-.5-2.05-1.26-2.05-2.19,0-1.25,1.01-2.27,2.67-2.27.78,0,1.47.22,1.9.48l-.35,1.02c-.3-.19-.86-.45-1.58-.45-.83,0-1.3.48-1.3,1.06,0,.64.46.93,1.47,1.31,1.34.51,2.03,1.18,2.03,2.34,0,1.36-1.06,2.32-2.9,2.32-.85,0-1.63-.21-2.18-.53l.35-1.07Z"/>
    <path d="M289.38,395.62c.42.27,1.15.56,1.86.56,1.02,0,1.5-.51,1.5-1.15,0-.67-.4-1.04-1.44-1.42-1.39-.5-2.05-1.26-2.05-2.19,0-1.25,1.01-2.27,2.67-2.27.78,0,1.47.22,1.9.48l-.35,1.02c-.3-.19-.86-.45-1.58-.45-.83,0-1.3.48-1.3,1.06,0,.64.46.93,1.47,1.31,1.34.51,2.03,1.18,2.03,2.34,0,1.36-1.06,2.32-2.9,2.32-.85,0-1.63-.21-2.18-.53l.35-1.07Z"/>
  </g>
</svg>