<?xml version="1.0" standalone="no"?>
<!DOCTYPE svg PUBLIC "-//W3C//DTD SVG 20010904//EN"
 "http://www.w3.org/TR/2001/REC-SVG-20010904/DTD/svg10.dtd">
<svg version="1.0" xmlns="http://www.w3.org/2000/svg"
 width="600.000000pt" height="600.000000pt" viewBox="0 0 600.000000 600.000000"
 preserveAspectRatio="xMidYMid meet">
<metadata>
Created by potrace 1.11, written by Peter Selinger 2001-2013
</metadata>
<g transform="translate(0.000000,600.000000) scale(0.100000,-0.100000)"
fill="#000000" stroke="none">
<path d="M0 3000 l0 -3000 3000 0 3000 0 0 3000 0 3000 -3000 0 -3000 0 0
-3000z m4606 2339 c63 -33 105 -91 112 -157 6 -70 -16 -109 -109 -193 -64 -58
-79 -77 -79 -100 l0 -29 -100 0 -100 0 0 33 c1 56 33 109 108 176 58 50 72 69
72 92 0 32 -23 49 -65 49 -34 0 -75 -42 -75 -76 l0 -27 -68 6 c-38 4 -83 10
-101 13 -32 7 -33 8 -27 48 8 47 54 122 92 150 47 34 104 46 200 43 74 -2 100
-7 140 -28z m-3113 4 c3 -10 20 -98 38 -195 18 -98 35 -176 37 -173 3 2 28 89
56 192 l52 188 109 0 110 0 31 -115 c17 -63 43 -153 56 -200 l25 -85 7 50 c5
28 21 117 37 198 16 82 29 151 29 153 0 2 50 4 111 4 100 0 110 -2 105 -17 -3
-10 -39 -173 -81 -362 -42 -190 -78 -348 -81 -353 -3 -4 -52 -8 -109 -8 -89 0
-106 3 -114 18 -5 9 -32 102 -60 205 -29 103 -55 197 -59 208 -5 13 -25 -43
-65 -188 -32 -115 -61 -215 -66 -223 -6 -12 -31 -15 -117 -15 l-109 0 -33 145
c-32 146 -82 369 -108 490 -8 36 -17 73 -20 83 -5 15 4 17 105 17 96 0 110 -2
114 -17z m1107 -113 l0 -131 28 26 c38 36 118 59 173 51 65 -10 107 -39 132
-94 20 -43 22 -62 22 -252 l0 -205 -100 0 -100 0 -5 170 c-6 197 -11 215 -69
215 -69 0 -75 -16 -81 -214 l-5 -171 -100 0 -100 0 -3 368 -2 367 105 0 105 0
0 -130z m1440 -70 l60 0 0 -75 0 -75 -60 0 -60 0 0 -111 c0 -138 7 -153 65
-145 l43 7 7 -61 c5 -42 3 -66 -4 -73 -7 -7 -51 -12 -114 -12 -84 0 -108 3
-134 20 -54 32 -63 65 -63 229 l0 146 -40 0 -40 0 0 75 0 75 40 0 40 0 0 50 0
49 98 48 97 48 3 -97 3 -98 59 0z m-573 9 c76 -13 119 -41 147 -94 18 -35 22
-65 27 -225 3 -102 10 -195 14 -207 7 -23 6 -23 -83 -23 -93 0 -122 11 -122
46 0 19 -6 18 -45 -12 -67 -51 -218 -57 -287 -11 -88 59 -89 194 -1 253 17 11
76 30 130 42 129 28 177 45 181 66 6 30 -18 46 -70 46 -42 0 -54 -5 -77 -29
l-26 -28 -93 10 c-77 9 -92 14 -92 29 0 25 37 84 66 102 60 40 211 56 331 35z
m1063 -454 l0 -96 -101 3 -101 3 1 88 c0 48 0 89 1 92 0 3 45 5 100 5 l100 0
0 -95z m-3464 -255 c116 -458 192 -742 193 -727 1 7 62 247 174 682 l33 130
277 3 277 2 0 -685 0 -685 -170 0 -170 0 0 503 c0 302 -4 496 -10 487 -5 -9
-15 -43 -23 -75 -8 -33 -56 -222 -107 -420 -51 -198 -100 -389 -109 -425 l-16
-65 -160 -3 -160 -2 -58 227 c-95 378 -198 777 -202 788 -2 6 -3 -221 -2 -503
l2 -512 -177 0 -178 0 0 678 c0 373 3 682 7 685 4 4 131 6 282 5 l275 -3 22
-85z m2866 -260 l3 -350 135 160 135 159 237 0 236 1 -176 -173 -175 -174 118
-204 c65 -112 149 -256 185 -319 l67 -115 -206 -3 c-113 -1 -210 -1 -216 2 -5
2 -53 89 -105 192 -52 104 -96 191 -98 193 -1 3 -34 -26 -72 -64 l-70 -69 0
-128 0 -128 -195 0 -195 0 0 685 0 685 195 0 195 0 2 -350z m-901 -25 c130
-28 198 -78 248 -185 26 -55 26 -57 32 -380 5 -302 7 -329 27 -377 l22 -53
-180 0 -179 0 -14 28 c-8 15 -17 40 -21 55 l-7 28 -47 -34 c-105 -76 -174 -97
-328 -97 -165 0 -258 39 -322 136 -73 109 -48 283 51 358 49 37 118 61 282 96
246 52 345 83 345 107 0 27 -29 82 -48 92 -12 6 -54 11 -94 11 -90 0 -135 -20
-163 -72 -18 -34 -24 -38 -60 -38 -22 0 -69 4 -105 9 -36 5 -100 12 -142 16
-55 5 -78 11 -78 20 0 7 10 39 22 69 42 111 130 180 268 210 93 20 397 21 491
1z m2435 -1 c188 -43 310 -159 358 -339 9 -33 19 -104 23 -157 l6 -98 -382 0
-383 0 7 -32 c12 -56 44 -106 82 -133 31 -20 50 -25 101 -25 70 0 92 8 139 53
31 29 34 30 105 24 123 -10 293 -29 297 -33 8 -7 -62 -104 -103 -142 -107 -99
-217 -132 -435 -132 -233 0 -336 34 -439 145 -124 132 -168 305 -128 497 39
184 180 328 362 372 83 20 305 20 390 0z m-3365 -2039 c175 -467 319 -851 319
-852 0 -2 -126 -3 -280 -3 -196 0 -280 3 -280 11 0 6 -18 69 -41 140 l-40 129
-297 -2 -296 -3 -41 -135 -40 -135 -272 -3 -272 -2 14 37 c7 21 59 157 114
303 55 146 194 514 308 818 l208 552 288 -2 289 -3 319 -850z m1651 832 c156
-31 261 -105 322 -227 140 -281 -2 -613 -298 -692 l-46 -12 67 -36 c52 -27 82
-53 130 -110 35 -41 74 -97 89 -125 161 -310 244 -473 244 -479 0 -3 -134 -5
-297 -4 l-297 3 -31 55 c-17 30 -53 96 -79 145 -224 418 -245 450 -322 473
-23 6 -58 12 -78 12 l-36 0 0 -345 0 -345 -265 0 -265 0 0 856 0 856 543 -5
c436 -3 557 -7 619 -20z m2138 -192 l0 -215 -265 0 -265 0 0 -640 0 -640 -265
0 -265 0 0 640 0 640 -270 0 -270 0 0 215 0 215 800 0 800 0 0 -215z"/>
<path d="M3356 4854 c-37 -13 -75 -29 -82 -35 -17 -14 -18 -61 -2 -77 18 -18
79 -14 115 8 35 21 46 49 41 97 l-3 30 -69 -23z"/>
<path d="M2802 3606 c-162 -50 -197 -74 -197 -134 0 -32 7 -48 28 -69 25 -25
35 -28 95 -28 51 0 76 6 108 24 70 39 112 128 102 217 l-3 31 -133 -41z"/>
<path d="M5195 3948 c-43 -23 -76 -64 -90 -111 -8 -27 -12 -53 -9 -58 3 -5 86
-9 185 -9 l181 0 -7 33 c-14 65 -46 117 -86 137 -43 22 -141 27 -174 8z"/>
<path d="M1451 2422 c-31 -101 -42 -139 -75 -249 -8 -27 -28 -92 -44 -145
l-30 -98 184 0 c142 0 182 3 179 13 -10 30 -148 487 -160 531 -8 26 -15 50
-17 52 -2 2 -19 -45 -37 -104z"/>
<path d="M3120 2470 l0 -170 131 0 c245 0 328 39 337 158 10 141 -62 182 -325
182 l-143 0 0 -170z"/>
</g>
</svg>
