<svg xmlns="http://www.w3.org/2000/svg" viewBox="0 0 792 792" style="enable-background:new 0 0 792 792" xml:space="preserve"><path d="M396 772.5c-50.84 0-100.14-9.95-146.54-29.58-44.83-18.96-85.1-46.11-119.68-80.7-34.58-34.58-61.73-74.85-80.7-119.68C29.45 496.14 19.5 446.84 19.5 396s9.95-100.14 29.58-146.54c18.96-44.83 46.11-85.1 80.7-119.68s74.85-61.73 119.68-80.7C295.86 29.45 345.16 19.5 396 19.5s100.14 9.95 146.54 29.58c44.83 18.96 85.1 46.11 119.68 80.7 34.58 34.58 61.73 74.85 80.7 119.68 19.63 46.4 29.58 95.71 29.58 146.54s-9.95 100.14-29.58 146.54c-18.96 44.83-46.11 85.1-80.7 119.68-34.58 34.58-74.85 61.73-119.68 80.7-46.4 19.63-95.7 29.58-146.54 29.58z" style="fill:#fff"/><path d="M396 39c48.21 0 94.96 9.43 138.95 28.04 42.51 17.98 80.69 43.73 113.49 76.52 32.8 32.8 58.55 70.98 76.52 113.49C743.57 301.04 753 347.79 753 396s-9.43 94.96-28.04 138.95c-17.98 42.51-43.73 80.69-76.52 113.49-32.8 32.8-70.98 58.55-113.49 76.52C490.96 743.57 444.21 753 396 753s-94.96-9.43-138.95-28.04c-42.51-17.98-80.69-43.73-113.49-76.52-32.8-32.8-58.55-70.98-76.52-113.49C48.43 490.96 39 444.21 39 396s9.43-94.96 28.04-138.95c17.98-42.51 43.73-80.69 76.52-113.49 32.8-32.8 70.98-58.55 113.49-76.52C301.04 48.43 347.79 39 396 39m0-39C177.3 0 0 177.3 0 396s177.3 396 396 396 396-177.3 396-396S614.7 0 396 0z"/><path style="fill:none;stroke:#000;stroke-width:48;stroke-linecap:round;stroke-linejoin:round;stroke-miterlimit:10" d="M575 540 396 396V108"/></svg>